name C:\Users\u0101727\Documents\MyRepositories\upper-imu-dc\Results\main_tracking\Case_17\kinematics.mot
datacolumns 10
datarows 28
range 6.25000000 6.52000000
endheader 
time	clav_prot	clav_elev	scapula_abduction	scapula_elevation	scapula_upward_rot	scapula_winging	plane_elv	shoulder_elv	axial_rot	
          6.25000000	        -43.18513271	         -1.66752413	         -2.66531332	         -9.89653694	         73.74981965	         -8.00055475	         36.32977007	         87.50336020	          1.39847975	
          6.26000000	        -43.09899049	         -1.64031288	         -2.47355449	         -9.86664395	         73.82339634	         -7.96464012	         36.49170932	         87.66081051	          1.34506889	
          6.27000000	        -43.01184338	         -1.60644166	         -2.28015049	         -9.83186303	         73.89846749	         -7.93187257	         36.65757191	         87.81101880	          1.29680562	
          6.28000000	        -42.92515693	         -1.56345957	         -2.08666765	         -9.79046682	         73.97675233	         -7.90422062	         36.82875417	         87.95128618	          1.25403505	
          6.29000000	        -42.83962607	         -1.50988472	         -1.89358232	         -9.74138166	         74.05950298	         -7.88271009	         37.00558028	         88.08014872	          1.21688203	
          6.30000000	        -42.75514035	         -1.44539605	         -1.70027104	         -9.68432766	         74.14738648	         -7.86732287	         37.18737217	         88.19749757	          1.18526571	
          6.31000000	        -42.67095714	         -1.37082273	         -1.50529244	         -9.61982399	         74.24048312	         -7.85711293	         37.37273238	         88.30440810	          1.15898332	
          6.32000000	        -42.58603724	         -1.28793183	         -1.30689178	         -9.54905701	         74.33839669	         -7.85051032	         37.55996104	         88.40273027	          1.13780559	
          6.33000000	        -42.49945364	         -1.19906894	         -1.10358912	         -9.47364454	         74.44045413	         -7.84573262	         37.74749223	         88.49454279	          1.12157938	
          6.34000000	        -42.41077919	         -1.10672254	         -0.89472812	         -9.39534316	         74.54593657	         -7.84121463	         37.93425935	         88.58160844	          1.11026522	
          6.35000000	        -42.32038952	         -1.01309586	         -0.68086801	         -9.31575298	         74.65433678	         -7.83597507	         38.11990733	         88.66489621	          1.10389320	
          6.36000000	        -42.22953137	         -0.91980294	         -0.46382556	         -9.23609750	         74.76554012	         -7.82978849	         38.30474537	         88.74436666	          1.10246253	
          6.37000000	        -42.14012404	         -0.82775387	         -0.24637062	         -9.15712807	         74.87983390	         -7.82312592	         38.48948462	         88.81912315	          1.10580748	
          6.38000000	        -42.05435401	         -0.73727441	         -0.03162097	         -9.07918564	         74.99779776	         -7.81687601	         38.67482843	         88.88783035	          1.11342974	
          6.39000000	        -41.97417090	         -0.64842689	          0.17769691	         -9.00240258	         75.12009695	         -7.81192706	         38.86105497	         88.94928475	          1.12436975	
          6.40000000	        -41.90084519	         -0.56141575	          0.37988315	         -8.92697074	         75.24724397	         -7.80875170	         39.04774484	         89.00294620	          1.13717023	
          6.41000000	        -41.83473793	         -0.47690637	          0.57458188	         -8.85336003	         75.37942219	         -7.80715043	         39.23374601	         89.04923138	          1.14996922	
          6.42000000	        -41.77535279	         -0.39610402	          0.76268166	         -8.78238113	         75.51643839	         -7.80625562	         39.41736913	         89.08946534	          1.16072616	
          6.43000000	        -41.72163326	         -0.32055225	          0.94585950	         -8.71505996	         75.65781770	         -7.80478797	         39.59672044	         89.12552480	          1.16752277	
          6.44000000	        -41.67238723	         -0.25174231	          1.12594514	         -8.65238242	         75.80299470	         -7.80145654	         39.77005075	         89.15932145	          1.16885780	
          6.45000000	        -41.62668687	         -0.19070999	          1.30432987	         -8.59502746	         75.95151735	         -7.79534137	         39.93601401	         89.19232070	          1.16385907	
          6.46000000	        -41.58411013	         -0.13779533	          1.48161492	         -8.54320710	         76.10318027	         -7.78611337	         40.09377016	         89.22526471	          1.15235625	
          6.47000000	        -41.54475505	         -0.09265914	          1.65759607	         -8.49667783	         76.25803638	         -7.77402031	         40.24292440	         89.25818043	          1.13480997	
          6.48000000	        -41.50904776	         -0.05453391	          1.83154865	         -8.45490974	         76.41628891	         -7.75966624	         40.38335256	         89.29063853	          1.11214011	
          6.49000000	        -41.47744722	         -0.02258605	          2.00266049	         -8.41733069	         76.57811966	         -7.74369586	         40.51500063	         89.32212758	          1.08552158	
          6.50000000	        -41.45018590	          0.00377778	          2.17041179	         -8.38353317	         76.74353817	         -7.72652859	         40.63774659	         89.35236767	          1.05621234	
          6.51000000	        -41.42715278	          0.02479177	          2.33475146	         -8.35335389	         76.91232326	         -7.70825142	         40.75136891	         89.38143373	          1.02544522	
          6.52000000	        -41.40794304	          0.04043409	          2.49603807	         -8.32680172	         77.08407850	         -7.68869366	         40.85560768	         89.40966542	          0.99437770	
